HIERARCHY
ROOT hip
{
  OFFSET 0 0 0
  CHANNELS 6 Xposition Yposition Zposition Zrotation Yrotation Xrotation
  JOINT abdomen
  {
    OFFSET 0 20.6881 -0.73152
    CHANNELS 3 Zrotation Xrotation Yrotation
    JOINT chest
    {
      OFFSET 0 11.7043 -0.48768
      CHANNELS 3 Zrotation Xrotation Yrotation
      JOINT neck
      {
        OFFSET 0 22.1894 -2.19456
        CHANNELS 3 Zrotation Xrotation Yrotation
        JOINT head
        {
          OFFSET -0.24384 7.07133 1.2192
          CHANNELS 3 Zrotation Xrotation Yrotation
          JOINT leftEye
          {
            OFFSET 4.14528 8.04674 8.04672
            CHANNELS 3 Zrotation Xrotation Yrotation
            End Site
            {
              OFFSET 1 0 0
            }
          }
          JOINT rightEye
          {
            OFFSET -3.6576 8.04674 8.04672
            CHANNELS 3 Zrotation Xrotation Yrotation
            End Site
            {
              OFFSET 1 0 0
            }
          }
        }
      }
      JOINT rCollar
      {
        OFFSET -2.68224 19.2634 -4.8768
        CHANNELS 3 Zrotation Xrotation Yrotation
        JOINT rShldr
        {
          OFFSET -8.77824 -1.95073 1.46304
          CHANNELS 3 Zrotation Xrotation Yrotation
          JOINT rForeArm
          {
            OFFSET -28.1742 -1.7115 0.48768
            CHANNELS 3 Zrotation Xrotation Yrotation
            JOINT rHand
            {
              OFFSET -22.5879 0.773209 7.07136
              CHANNELS 3 Zrotation Xrotation Yrotation
              JOINT rThumb1
              {
                OFFSET -1.2192 -0.487915 3.41376
                CHANNELS 3 Zrotation Xrotation Yrotation
                JOINT rThumb2
                {
                  OFFSET -3.37035 -0.52449 3.41376
                  CHANNELS 3 Zrotation Xrotation Yrotation
                  End Site
                  {
                    OFFSET -1.78271 -1.18214 1.43049
                  }
                }
              }
              JOINT rIndex1
              {
                OFFSET -7.75947 0.938293 5.60832
                CHANNELS 3 Zrotation Xrotation Yrotation
                JOINT rIndex2
                {
                  OFFSET -2.54057 -0.884171 1.56538
                  CHANNELS 3 Zrotation Xrotation Yrotation
                  End Site
                  {
                    OFFSET -1.62519 -0.234802 1.16502
                  }
                }
              }
              JOINT rMid1
              {
                OFFSET -8.24714 1.18213 3.41376
                CHANNELS 3 Zrotation Xrotation Yrotation
                JOINT rMid2
                {
                  OFFSET -3.10165 -0.590103 1.0647
                  CHANNELS 3 Zrotation Xrotation Yrotation
                  End Site
                  {
                    OFFSET -2.48547 -0.328903 0.83742
                  }
                }
              }
              JOINT rRing1
              {
                OFFSET -8.82822 0.546677 1.51678
                CHANNELS 3 Zrotation Xrotation Yrotation
                JOINT rRing2
                {
                  OFFSET -2.60934 -0.819778 -0.0198488
                  CHANNELS 3 Zrotation Xrotation Yrotation
                  End Site
                  {
                    OFFSET -2.33842 -0.294052 0.168128
                  }
                }
              }
              JOINT rPinky1
              {
                OFFSET -8.27202 -0.0477905 -0.4584
                CHANNELS 3 Zrotation Xrotation Yrotation
                JOINT rPinky2
                {
                  OFFSET -1.82734 -0.647385 -0.700984
                  CHANNELS 3 Zrotation Xrotation Yrotation
                  End Site
                  {
                    OFFSET -1.69225 -0.51767 -0.607171
                  }
                }
              }
            }
          }
        }
      }
      JOINT lCollar
      {
        OFFSET 2.68224 19.2634 -4.8768
        CHANNELS 3 Zrotation Xrotation Yrotation
        JOINT lShldr
        {
          OFFSET 8.77824 -1.95073 1.46304
          CHANNELS 3 Zrotation Xrotation Yrotation
          JOINT lForeArm
          {
            OFFSET 28.1742 -1.7115 0.48768
            CHANNELS 3 Zrotation Xrotation Yrotation
            JOINT lHand
            {
              OFFSET 22.5879 0.773209 7.07136
              CHANNELS 3 Zrotation Xrotation Yrotation
              JOINT lThumb1
              {
                OFFSET 1.2192 -0.487915 3.41376
                CHANNELS 3 Zrotation Xrotation Yrotation
                JOINT lThumb2
                {
                  OFFSET 3.37035 -0.52449 3.41376
                  CHANNELS 3 Zrotation Xrotation Yrotation
                  End Site
                  {
                    OFFSET 1.78271 -1.18214 1.43049
                  }
                }
              }
              JOINT lIndex1
              {
                OFFSET 7.75947 0.938293 5.60832
                CHANNELS 3 Zrotation Xrotation Yrotation
                JOINT lIndex2
                {
                  OFFSET 2.54057 -0.884171 1.56538
                  CHANNELS 3 Zrotation Xrotation Yrotation
                  End Site
                  {
                    OFFSET 1.62519 -0.234802 1.16502
                  }
                }
              }
              JOINT lMid1
              {
                OFFSET 8.24714 1.18213 3.41376
                CHANNELS 3 Zrotation Xrotation Yrotation
                JOINT lMid2
                {
                  OFFSET 3.10165 -0.590103 1.0647
                  CHANNELS 3 Zrotation Xrotation Yrotation
                  End Site
                  {
                    OFFSET 2.48547 -0.328903 0.83742
                  }
                }
              }
              JOINT lRing1
              {
                OFFSET 8.82822 0.546677 1.51678
                CHANNELS 3 Zrotation Xrotation Yrotation
                JOINT lRing2
                {
                  OFFSET 2.60934 -0.819778 -0.0198488
                  CHANNELS 3 Zrotation Xrotation Yrotation
                  End Site
                  {
                    OFFSET 2.33842 -0.294052 0.168128
                  }
                }
              }
              JOINT lPinky1
              {
                OFFSET 8.27202 -0.0477905 -0.4584
                CHANNELS 3 Zrotation Xrotation Yrotation
                JOINT lPinky2
                {
                  OFFSET 1.82734 -0.647385 -0.700984
                  CHANNELS 3 Zrotation Xrotation Yrotation
                  End Site
                  {
                    OFFSET 1.69225 -0.51767 -0.607171
                  }
                }
              }
            }
          }
        }
      }
    }
  }
  JOINT rButtock
  {
    OFFSET -8.77824 4.35084 1.2192
    CHANNELS 3 Zrotation Xrotation Yrotation
    JOINT rThigh
    {
      OFFSET 0 -1.70687 -2.19456
      CHANNELS 3 Zrotation Xrotation Yrotation
      JOINT rShin
      {
        OFFSET 0 -36.8199 0.73152
        CHANNELS 3 Zrotation Xrotation Yrotation
        JOINT rFoot
        {
          OFFSET 0.73152 -45.1104 -5.12064
          CHANNELS 3 Zrotation Xrotation Yrotation
          End Site
          {
            OFFSET -1.1221 -3.69964 12.103
          }
        }
      }
    }
  }
  JOINT lButtock
  {
    OFFSET 8.77824 4.35084 1.2192
    CHANNELS 3 Zrotation Xrotation Yrotation
    JOINT lThigh
    {
      OFFSET 0 -1.70687 -2.19456
      CHANNELS 3 Zrotation Xrotation Yrotation
      JOINT lShin
      {
        OFFSET 0 -36.8199 0.73152
        CHANNELS 3 Zrotation Xrotation Yrotation
        JOINT lFoot
        {
          OFFSET -0.73152 -45.1104 -5.12064
          CHANNELS 3 Zrotation Xrotation Yrotation
          End Site
          {
            OFFSET 1.1221 -3.69964 12.103
          }
        }
      }
    }
  }
}
MOTION
Frames:	7
Frame Time:	0.00833333
-78.5092 58.577 10.0989 176.336 35.8259 -164.421 -17.1439 22.8202 16.7762 -11.8504 -7.47287 3.67663 18.3164 13.5133 21.8067 -29.621 -5.66795 43.485 -0.0 0.0 0.0 -0.0 0.0 0.0 9.00119e-14 1.1231e-13 1.13953e-13 -5.7837 -41.7304 43.1627 -22.4487 -51.1755 107.874 -11.8149 -65.7596 -18.1878 -9.78694e-10 -4.22174e-10 1.87312e-09 -1.77299e-09 -9.53704e-10 3.15042e-09 -9.78688e-10 -4.22174e-10 1.87312e-09 7.73091 5.47488 0.417314 -9.78696e-10 -4.22175e-10 1.87312e-09 2.90554 0.965183 0.102902 -9.7869e-10 -4.22176e-10 1.87313e-09 10.2786 0.731801 0.0259123 -9.78701e-10 -4.22175e-10 1.87314e-09 2.22167 -0.733487 -0.20892 8.98973e-14 1.12316e-13 1.13782e-13 10.1343 52.3441 -65.3903 28.2 -31.9784 -70.4177 0.106531 -9.26909 1.31428 1.36667e-09 -3.99016e-09 -2.26715e-09 2.38154e-09 -6.8989e-09 -3.91277e-09 1.36666e-09 -3.99016e-09 -2.26714e-09 -7.73091 5.47488 -0.417314 1.36667e-09 -3.99017e-09 -2.26715e-09 -2.90554 0.965183 -0.102902 1.36667e-09 -3.99016e-09 -2.26715e-09 -10.2786 0.731801 -0.0259123 1.36667e-09 -3.99016e-09 -2.26716e-09 -2.22167 -0.733487 0.20892 -2.03217e-16 0.0 -3.88251e-19 -47.8493 -19.6152 -64.4497 -157.822 87.7573 160.595 -4.13789 -24.219 -11.1105 2.03217e-16 0.0 3.88251e-19 3.17746 -88.1511 -7.28198 3.22739 74.9628 -3.24025 -2.84827 -1.35869 -12.9997
-78.5189 58.4877 10.063 176.317 35.9931 -164.374 -17.1135 22.7235 16.7744 -11.8746 -7.47695 3.67597 18.2966 13.6801 21.7803 -29.6275 -5.83008 43.4174 -0.0 0.0 0.0 -0.0 0.0 0.0 2.02295e-13 1.54476e-13 2.45188e-13 -5.72917 -41.7755 43.1723 -22.4973 -51.1254 107.739 -11.8612 -65.8174 -18.2386 -1.15626e-09 -5.2594e-10 2.1614e-09 -2.09212e-09 -1.15224e-09 3.63165e-09 -1.15626e-09 -5.2594e-10 2.16139e-09 7.73091 5.47488 0.417314 -1.15627e-09 -5.25942e-10 2.1614e-09 2.90554 0.965183 0.102902 -1.15626e-09 -5.25945e-10 2.1614e-09 10.2786 0.731801 0.0259123 -1.15627e-09 -5.25943e-10 2.16141e-09 2.22167 -0.733487 -0.20892 2.02172e-13 1.54485e-13 2.45064e-13 9.891 52.3625 -65.219 28.1919 -31.9135 -70.3128 0.105013 -9.20326 1.30479 1.34657e-09 -4.29754e-09 -1.91788e-09 2.34519e-09 -7.43503e-09 -3.31297e-09 1.34656e-09 -4.29754e-09 -1.91787e-09 -7.73091 5.47488 -0.417314 1.34657e-09 -4.29754e-09 -1.91788e-09 -2.90554 0.965183 -0.102902 1.34656e-09 -4.29753e-09 -1.91788e-09 -10.2786 0.731801 -0.0259123 1.34657e-09 -4.29753e-09 -1.91789e-09 -2.22167 -0.733487 0.20892 -2.03217e-16 0.0 -3.88251e-19 -48.0113 -19.652 -64.4859 -158.944 87.6439 161.722 -4.13071 -24.2928 -11.075 2.03217e-16 0.0 3.88251e-19 4.45073 -88.2262 -5.99633 3.27151 75.1182 -3.28512 -2.8706 -1.50647 -12.9069
-78.5579 58.3729 10.0165 176.108 36.1771 -164.429 -17.0767 22.6567 16.7611 -11.8746 -7.48167 3.67211 18.3058 13.8186 21.7594 -29.6735 -5.92493 43.3801 -0.0 0.0 0.0 -0.0 0.0 0.0 2.44181e-13 1.59023e-13 3.02202e-13 -5.67172 -41.8145 43.18 -22.5479 -51.0731 107.597 -11.9392 -65.9142 -18.3241 -1.1581e-09 -5.33296e-10 2.04314e-09 -2.08907e-09 -1.14478e-09 3.42792e-09 -1.1581e-09 -5.33297e-10 2.04314e-09 7.73091 5.47488 0.417314 -1.1581e-09 -5.333e-10 2.04314e-09 2.90554 0.965183 0.102902 -1.1581e-09 -5.33303e-10 2.04315e-09 10.2786 0.731801 0.0259123 -1.15811e-09 -5.333e-10 2.04316e-09 2.22167 -0.733487 -0.20892 2.4405e-13 1.59032e-13 3.02103e-13 9.65598 52.3986 -65.0587 28.1858 -31.8673 -70.24 0.104099 -9.16316 1.299 1.0967e-09 -3.8331e-09 -1.53579e-09 1.9104e-09 -6.63397e-09 -2.65553e-09 1.0967e-09 -3.83311e-09 -1.53578e-09 -7.73091 5.47488 -0.417314 1.09671e-09 -3.8331e-09 -1.53578e-09 -2.90554 0.965183 -0.102902 1.0967e-09 -3.8331e-09 -1.53579e-09 -10.2786 0.731801 -0.0259123 1.0967e-09 -3.8331e-09 -1.53579e-09 -2.22167 -0.733487 0.20892 -2.03217e-16 0.0 -3.88251e-19 -48.1171 -19.709 -64.4548 -159.556 87.5761 162.336 -4.10602 -24.3195 -11.0185 2.03217e-16 0.0 3.88251e-19 6.18057 -88.2578 -4.24968 3.30566 75.2364 -3.32078 -2.88332 -1.61068 -12.8261
-78.5938 58.3571 9.98717 175.927 36.3075 -164.529 -17.0253 22.633 16.7329 -11.8415 -7.48832 3.66407 18.3633 13.9239 21.7467 -29.7806 -5.91855 43.3931 -0.0 0.0 0.0 -0.0 0.0 0.0 1.60892e-13 9.93393e-14 2.55274e-13 -5.60692 -41.8469 43.1802 -22.6023 -51.0166 107.445 -12.0636 -66.0666 -18.4603 -8.6418e-10 -3.77821e-10 1.23286e-09 -1.54342e-09 -7.88296e-10 2.05773e-09 -8.64175e-10 -3.77822e-10 1.23285e-09 7.73091 5.47488 0.417314 -8.64181e-10 -3.77825e-10 1.23286e-09 2.90554 0.965183 0.102902 -8.64176e-10 -3.77828e-10 1.23286e-09 10.2786 0.731801 0.0259123 -8.64191e-10 -3.77825e-10 1.23287e-09 2.22167 -0.733487 -0.20892 1.60753e-13 9.93454e-14 2.55166e-13 9.45693 52.4617 -64.9339 28.1828 -31.8489 -70.2144 0.1041 -9.16307 1.29899 4.45185e-10 -2.0831e-09 -1.1349e-09 7.79286e-10 -3.60557e-09 -1.96435e-09 4.4518e-10 -2.08311e-09 -1.13489e-09 -7.73091 5.47488 -0.417314 4.45187e-10 -2.0831e-09 -1.13489e-09 -2.90554 0.965183 -0.102902 4.45181e-10 -2.0831e-09 -1.1349e-09 -10.2786 0.731801 -0.0259123 4.45185e-10 -2.0831e-09 -1.1349e-09 -2.22167 -0.733487 0.20892 -2.03217e-16 0.0 -3.88251e-19 -48.1256 -19.7792 -64.3227 -159.494 87.5817 162.271 -4.04169 -24.2685 -10.9071 2.03217e-16 0.0 3.88251e-19 8.16058 -88.2243 -2.2586 3.32474 75.3013 -3.34253 -2.87901 -1.63535 -12.7615
-78.6052 58.3506 9.96225 175.9 36.3917 -164.599 -16.9691 22.634 16.6953 -11.7816 -7.49465 3.6537 18.4567 14.0151 21.7392 -29.9353 -5.84905 43.4402 -0.0 0.0 0.0 -0.0 0.0 0.0 1.86418e-15 -2.3863e-15 1.46821e-13 -5.53294 -41.8735 43.183 -22.6623 -50.9536 107.275 -12.2315 -66.2689 -18.6439 -3.71045e-10 -1.15505e-10 -4.76049e-11 -6.32104e-10 -1.99182e-10 -1.0529e-10 -3.7104e-10 -1.15505e-10 -4.76147e-11 7.73091 5.47488 0.417314 -3.71046e-10 -1.15509e-10 -4.76028e-11 2.90554 0.965183 0.102902 -3.71042e-10 -1.1551e-10 -4.76035e-11 10.2786 0.731801 0.0259123 -3.71055e-10 -1.15507e-10 -4.75948e-11 2.22167 -0.733487 -0.20892 1.71716e-15 -2.38522e-15 1.46684e-13 9.25669 52.5387 -64.8134 28.1815 -31.8459 -70.215 0.104653 -9.18714 1.30246 -5.27543e-10 6.61734e-10 -6.07861e-10 -9.09301e-10 1.14572e-09 -1.05479e-09 -5.27546e-10 6.61726e-10 -6.0785e-10 -7.73091 5.47488 -0.417314 -5.27541e-10 6.61734e-10 -6.07857e-10 -2.90554 0.965183 -0.102902 -5.27546e-10 6.61736e-10 -6.0786e-10 -10.2786 0.731801 -0.0259123 -5.27542e-10 6.61737e-10 -6.07867e-10 -2.22167 -0.733487 0.20892 -2.03217e-16 0.0 -3.88251e-19 -48.0725 -19.861 -64.1209 -159.047 87.6291 161.817 -3.94911 -24.1691 -10.7538 2.03217e-16 0.0 3.88251e-19 10.2368 -88.1522 -0.177418 3.33625 75.3389 -3.35748 -2.86414 -1.60942 -12.7057
-78.5878 58.3585 9.9506 175.985 36.4866 -164.598 -16.9191 22.6443 16.6517 -11.7104 -7.49941 3.64178 18.5517 14.0887 21.7328 -30.0988 -5.7637 43.4881 -0.0 0.0 0.0 -0.0 0.0 0.0 -1.46728e-13 -1.02919e-13 1.19084e-14 -5.46116 -41.8942 43.1935 -22.7221 -50.8901 107.106 -12.4168 -66.4875 -18.8461 1.23658e-10 1.46196e-10 -1.32226e-09 2.81609e-10 3.88064e-10 -2.25795e-09 1.23664e-10 1.46196e-10 -1.32228e-09 7.73091 5.47488 0.417314 1.23658e-10 1.46192e-10 -1.32226e-09 2.90554 0.965183 0.102902 1.23662e-10 1.46191e-10 -1.32226e-09 10.2786 0.731801 0.0259123 1.23651e-10 1.46195e-10 -1.32226e-09 2.22167 -0.733487 -0.20892 -1.46883e-13 -1.02923e-13 1.17368e-14 9.0202 52.6186 -64.6646 28.181 -31.8477 -70.2228 0.105297 -9.21515 1.3065 -1.49506e-09 3.46351e-09 -3.63103e-12 -2.58924e-09 5.9954e-09 -1.15897e-11 -1.49506e-09 3.46351e-09 -3.62099e-12 -7.73091 5.47488 -0.417314 -1.49506e-09 3.46352e-09 -3.62776e-12 -2.90554 0.965183 -0.102902 -1.49506e-09 3.46351e-09 -3.62955e-12 -10.2786 0.731801 -0.0259123 -1.49506e-09 3.46352e-09 -3.63701e-12 -2.22167 -0.733487 0.20892 -2.03217e-16 0.0 -3.88251e-19 -48.0227 -19.971 -63.9012 -158.539 87.6806 161.302 -3.87033 -24.0679 -10.6257 2.03217e-16 0.0 3.88251e-19 12.5097 -88.0659 2.11781 3.34449 75.3661 -3.36932 -2.85134 -1.59194 -12.6548
-78.5596 58.4138 9.93832 176.112 36.6268 -164.586 -16.8861 22.6485 16.6054 -11.6431 -7.50135 3.62911 18.6136 14.1413 21.7234 -30.2319 -5.70949 43.5031 -0.0 0.0 0.0 -0.0 0.0 0.0 -1.98711e-13 -1.59024e-13 -1.14401e-13 -5.40295 -41.9094 43.2164 -22.776 -50.8324 106.953 -12.5912 -66.6892 -19.0361 4.22284e-10 2.99823e-10 -2.11513e-09 8.34464e-10 7.38945e-10 -3.59705e-09 4.22291e-10 2.99823e-10 -2.11515e-09 7.73091 5.47488 0.417314 4.22284e-10 2.9982e-10 -2.11513e-09 2.90554 0.965183 0.102902 4.22289e-10 2.9982e-10 -2.11514e-09 10.2786 0.731801 0.0259123 4.2228e-10 2.99823e-10 -2.11513e-09 2.22167 -0.733487 -0.20892 -1.98872e-13 -1.59033e-13 -1.14599e-13 8.71236 52.6898 -64.4546 28.1802 -31.8439 -70.2187 0.105567 -9.22682 1.30819 -2.13095e-09 5.38434e-09 6.2884e-10 -3.69443e-09 9.31896e-09 1.08053e-09 -2.13095e-09 5.38433e-09 6.2885e-10 -7.73091 5.47488 -0.417314 -2.13095e-09 5.38434e-09 6.28843e-10 -2.90554 0.965183 -0.102902 -2.13095e-09 5.38434e-09 6.28842e-10 -10.2786 0.731801 -0.0259123 -2.13095e-09 5.38434e-09 6.28834e-10 -2.22167 -0.733487 0.20892 -2.03217e-16 0.0 -3.88251e-19 -48.0409 -20.1267 -63.7159 -158.344 87.6992 161.104 -3.84646 -24.0116 -10.5894 2.03217e-16 0.0 3.88251e-19 15.1613 -87.989 4.83246 3.3539 75.4 -3.38188 -2.85299 -1.64203 -12.6051
